<svg xmlns="http://www.w3.org/2000/svg" version="1.1" xmlns:xlink="http://www.w3.org/1999/xlink" width="1000" height="1000"><g clip-path="url(#SvgjsClipPath1473)"><rect width="1000" height="1000" fill="#000000"></rect><g transform="matrix(0.9259259259259259,0,0,0.9259259259259259,0,0)"><svg xmlns="http://www.w3.org/2000/svg" version="1.1" xmlns:xlink="http://www.w3.org/1999/xlink" width="1080" height="1080"><svg width="1080" height="1080" viewBox="0 0 1080 1080" fill="none" xmlns="http://www.w3.org/2000/svg">
<rect width="1080" height="1080" transform="matrix(1 0 0 -1 0 1080)" fill="black"></rect>
<rect x="177" y="51" width="729" height="955" rx="303.5" fill="white"></rect>
<g clip-path="url(#clip0_24_19)">
<path d="M794 1053C628.979 1053 463.958 1053 298.44 1052.74C294.465 1047.53 289.893 1043.43 286.935 1038.02C285.421 1035.25 282.358 1034.27 279.232 1034.04C275.726 1033.78 272.334 1033 268.922 1032.18C258.735 1029.76 251.528 1024.34 248.775 1013.7C247.959 1010.55 246.126 1007.61 244.501 1004.71C235.376 988.454 225.157 972.796 218.136 955.389C216.06 950.243 215.7 944.654 213.348 939.642C206.795 925.678 197.753 913.794 184.844 905.032C182.823 903.66 180.957 901.773 179.622 899.73C175.223 892.999 169.446 887.38 164.741 880.94C159.021 873.11 150.702 867.688 145.633 859.26C137.317 845.435 130.982 830.944 128.54 814.863C126.98 804.593 121.603 795.268 120.036 785.12C116.764 763.924 110.927 743.123 110.694 721.42C110.586 711.311 107.245 701.802 100.705 693.664C97.3841 689.531 92.3649 687.449 88.8965 683.8C83.8594 678.501 78.3878 677.698 71.6847 678.767C63.747 680.034 58.9473 676.949 56.4338 669.218C52.0786 655.823 49.0508 642.058 50.1616 627.946C51.1096 615.901 50.3076 603.966 49.7282 592.008C49.3593 584.396 48.747 576.743 45.2686 569.621C40.8513 560.577 33.5236 553.12 31.2724 542.716C29.2613 544.344 30.0977 546.551 29 548C29 532.312 29 516.625 29.1747 500.685C29.8713 501.183 29.8736 502.499 30.6218 502.375C43.1139 481.08 41.1992 460.028 30.4621 439.223C30.0446 440.301 29.5223 441.651 29 443C29 420.646 29 398.292 29.168 375.669C29.7457 376.082 29.8674 377.024 31.4895 377.215C36.2242 362.004 43.883 347.725 47.4717 331.957C47.7659 330.664 47.8919 329.32 47.9685 327.992C48.8048 313.494 50.8395 299.228 54.9099 285.219C57.0929 277.705 62.0316 272.525 68.0398 268.578C70.4924 266.968 72.3283 265.692 73.7368 263.093C77.3133 256.494 81.5693 250.053 88.672 247.042C93.378 245.046 98.1367 242.973 103.049 241.408C111.236 238.799 116.76 232.971 121.49 226.184C126.101 219.569 129.436 212.283 135.483 206.386C141.999 200.033 146.365 191.723 146.35 181.875C146.343 176.956 148.034 172.428 150.863 168.32C154.076 163.655 157.026 158.809 160.277 154.173C164.535 148.1 170.381 144.105 177.44 141.917C185.445 139.437 193.482 137.976 202.028 138.874C209.846 139.696 218.165 139.665 224.183 133.592C237.146 120.51 248.208 106.002 255.158 88.6886C257.378 83.157 258.606 77.5346 257.825 71.6091C256.962 65.0664 258.306 59.0826 261.615 53.4032C263.29 50.5268 264.699 47.4509 264.26 43.9412C263.83 40.5032 264.768 37.3386 266.072 34.2335C266.775 32.559 267.8 30.9411 267 29C449.688 29 632.375 29 815.35 29.2646C814.591 35.985 814.008 43.3858 817.286 48.3709C825.186 60.3823 830.53 73.7406 838.436 85.6576C841.227 89.8659 843.21 94.3312 844.922 99.0695C853.7 123.365 864.506 146.71 879.163 168.071C887.318 179.955 896.866 190.512 909.928 197.423C913.561 199.345 916.853 202.112 919.342 205.516C931.952 222.757 949.884 232.911 968.549 241.778C982.206 248.267 992.419 258.254 1001.01 270.228C1003.52 273.739 1005.44 277.681 1009.12 280.214C1016.65 285.397 1020.64 292.831 1020.87 301.673C1021.05 308.509 1022.7 314.336 1026.72 319.779C1029.08 322.977 1031.05 326.505 1032.85 330.063C1035.78 335.877 1039.72 339.675 1046.81 339.288C1048.84 339.177 1050.94 340.393 1053 341C1053 377.354 1053 413.708 1052.75 450.57C1049.68 452.513 1048.87 455.42 1048.02 457.979C1044.7 467.977 1042.37 478.158 1042.75 488.845C1043.28 503.702 1042.55 518.498 1039.3 533.065C1035.34 550.786 1031.78 568.529 1029.9 586.656C1028.35 601.572 1029.06 616.674 1026.05 631.438C1022.03 651.173 1020.91 671.43 1014.95 690.826C1010.2 706.27 1006.9 722.12 1002.72 737.712C998.017 755.246 997.132 774.086 985.888 789.582C983.889 792.337 982.852 795.893 981.809 799.216C980.1 804.664 977.803 809.78 974.813 814.641C971.329 820.306 966.733 825.726 964.994 831.919C962.489 840.84 957.298 847.618 950.881 853.243C937.599 864.887 924.533 876.755 911.577 888.75C892.74 906.189 874.164 923.858 860.444 945.891C852.598 958.489 842.44 968.724 830.31 977.452C816.065 987.702 807.909 1001.9 805.664 1019.74C804.432 1029.53 806.206 1040.79 796.247 1047.87C795.194 1048.62 794.478 1049.83 793.496 1050.7C792.193 1051.86 793.341 1052.34 794 1053ZM465.752 665.746C479.394 679.475 495.383 689.372 513.874 695.157C516.556 695.996 519.22 696.999 521.737 694.405C527.771 688.187 534.032 682.188 540.01 675.918C543.009 672.773 542.462 671.471 538.17 670.201C537.055 669.871 535.907 669.656 534.784 669.351C499.536 659.765 473.206 640.606 463.444 603.378C461.437 595.723 457.584 588.936 451.82 583.276C438.147 569.848 424.6 556.291 410.986 542.803C404.39 536.267 396.568 533.234 387.14 533.277C345.309 533.467 303.475 533.313 261.644 533.473C257.167 533.49 254.662 532.264 254.29 527.642C254.198 526.492 253.825 525.367 253.602 524.226C244.762 479.113 241.906 433.522 242.509 387.636C242.556 384.029 243.877 382.295 247.101 381.018C287.985 364.828 328.826 348.533 369.691 332.295C371.298 331.657 372.918 330.445 375.376 331.897C375.376 340.26 375.489 348.9 375.325 357.535C375.251 361.454 375.964 363.837 380.702 363.855C385.402 363.872 386.78 361.908 386.684 357.513C386.484 348.351 386.733 339.179 386.585 330.015C386.535 326.893 387.584 325.071 390.566 324.01C395.586 322.225 400.459 320.025 405.491 318.278C410.552 316.521 412.247 317.793 412.284 323.111C412.343 331.777 412.426 340.446 412.244 349.109C412.159 353.207 413.734 354.625 417.82 354.744C422.008 354.867 423.53 353.259 423.506 349.303C423.45 339.971 423.397 330.636 423.563 321.306C423.782 309.033 421.639 312.405 433.348 307.398C436.746 305.945 438.309 306.705 438.243 310.635C438.154 315.953 438.166 321.282 440.136 326.393C443.045 333.937 448.551 337.881 456.061 337.619C463.5 337.359 469.14 332.981 471.321 325.401C473.473 317.925 473.253 310.294 472.331 302.639C471.943 299.412 468.352 295.999 470.6 293.367C472.647 290.972 476.719 290.285 479.928 288.915C481.302 288.328 482.725 287.812 484.173 287.448C489.086 286.215 491.13 287.687 491.187 292.681C491.289 301.68 491.323 310.681 491.241 319.679C491.209 323.216 492.56 324.729 496.219 324.913C500.943 325.15 502.496 322.778 502.509 318.627C502.538 308.961 502.546 299.294 502.55 289.628C502.555 279.409 502.504 279.287 512.096 275.714C517.468 273.714 522.549 270.736 528.23 269.919C529.728 272.361 529.287 274.578 529.29 276.697C529.323 297.696 529.059 318.7 529.429 339.693C529.573 347.818 526.308 353.701 520.688 358.943C518.451 361.03 516.714 361.249 514.253 359.283C510.201 356.045 505.696 353.589 500.584 352.25C492.384 350.1 485.095 353.258 477.284 355.019C446.958 361.856 420.586 376.207 396.927 395.745C363.543 423.313 339.98 457.993 324.683 498.383C322.783 503.4 323.637 504.516 329.219 504.59C335.051 504.667 340.891 504.436 346.716 504.66C350.639 504.811 352.821 503.144 354.387 499.669C357.396 492.992 360.448 486.309 363.954 479.885C384.925 441.462 415.052 412.825 455.268 395.113C457.16 394.279 459.01 392.826 461.602 393.627C461.859 394.289 462.177 395.032 462.438 395.795C470.658 419.742 498.788 427.384 517.342 410.198C532.86 395.823 547.659 380.67 562.715 365.799C566.395 362.165 568.533 357.763 568.472 352.415C568.299 337.252 568.113 322.09 568.079 306.927C568.025 283.094 568.017 259.261 568.176 235.43C568.205 231.109 566.755 228.601 562.568 227.296C558.283 225.96 554.161 224.108 549.953 222.52C545.745 220.932 541.543 220.798 537.284 222.474C529.227 225.646 521.126 228.704 513.058 231.849C429.731 264.32 346.406 296.797 263.083 329.278C243.222 337.019 223.367 344.775 203.513 352.533C200.821 353.585 198.36 354.66 198.289 358.331C198.141 365.989 197.516 373.639 197.41 381.297C197.003 410.798 199.134 440.152 202.14 469.49C205.314 500.47 210.281 531.109 217.438 561.406C219.075 568.333 219.349 568.555 226.434 568.465C279.094 567.799 331.754 568.185 384.414 568.502C388.206 568.525 391.032 569.656 393.683 572.342C401.291 580.05 408.749 587.967 416.93 595.032C425.24 602.207 431.15 610.674 435.263 620.756C442.15 637.638 452.597 652.209 465.752 665.746ZM676.719 739.235C674.328 741.31 671.999 743.462 669.537 745.449C654.855 757.298 639.6 768.248 622.141 775.779C618.337 777.419 616.251 777.559 614.599 772.616C610.641 760.776 601.474 753.921 589.464 752.588C576.449 751.143 564.795 756.101 558.733 767.925C554.62 775.947 549.015 782.067 542.928 788.135C538.553 792.498 536.427 797.567 536.431 803.784C536.474 864.106 536.459 924.427 536.361 984.749C536.355 988.485 537.323 991.02 540.826 992.797C544.228 994.523 547.005 994.969 550.517 992.697C564.506 983.647 578.533 974.66 592.202 965.128C639.873 931.886 685.182 895.901 724.489 852.774C789.552 781.385 834.875 699.261 859.591 605.832C861.433 598.866 860.866 598.161 853.425 598.104C852.592 598.098 851.759 598.119 850.926 598.119C804.768 598.122 758.61 598.073 712.453 598.199C707.247 598.214 703.278 596.713 699.628 592.918C690.506 583.434 681.09 574.23 671.721 564.987C666.516 559.852 662.815 553.88 660.501 546.933C647.299 507.285 618.625 483.595 580.576 469.591C577.904 468.607 575.879 469.042 573.858 471.114C567.693 477.436 561.38 483.614 555.146 489.869C554.224 490.794 553.123 491.682 553.403 493.312C554.649 495.096 556.666 495.316 558.601 495.812C567.317 498.047 575.977 500.504 584.006 504.671C608.413 517.338 626.865 534.94 632.724 563.153C633.94 569.012 635.957 574.826 640.265 579.273C653.014 592.436 665.818 605.549 678.768 618.514C685.549 625.302 693.805 628.326 703.591 628.228C735.414 627.911 767.242 627.97 799.067 627.939C801.119 627.937 803.453 627.376 805.181 629.697C804.803 631.025 804.461 632.47 803.983 633.869C786.701 684.385 761.888 730.923 730.286 773.922C727.341 777.929 725.147 778.512 720.603 776.301C709.883 771.084 699.637 776.864 697.361 788.529C696.089 795.05 696.342 801.425 697.891 807.815C698.282 809.427 699.128 811.248 697.954 812.625C694.758 816.372 691.323 819.916 687.481 824.083C686.006 819.748 685.168 816.183 683.623 812.957C679.416 804.17 668.344 802.026 661.388 808.486C657.383 812.207 655.608 817.005 655.356 822.324C654.905 831.848 654.728 841.364 662.169 849.075C632.637 875.955 601.619 899.78 568.09 922.418C568.09 884.594 568.09 848.249 568.09 811.656C569.176 811.742 570.055 811.602 570.75 811.898C581.001 816.264 591.35 815.14 601.55 812.069C628.12 804.07 652.173 791.23 674.707 775.007C714.666 746.24 741.458 707.66 760.431 662.981C761.098 661.41 762.392 659.743 760.905 657.483C754.541 656.41 747.861 657.404 741.269 656.866C735.853 656.424 732.942 658.397 730.652 663.51C717.852 692.097 700.575 717.601 676.719 739.235ZM657.428 446.12C647.962 439.257 637.845 433.512 627.424 428.226C623.383 426.177 620.429 426.388 617.272 429.769C612.841 434.514 607.985 438.86 603.423 443.488C601.853 445.081 599.496 446.13 599.163 448.726C600.121 450.681 602.109 450.887 603.711 451.647C609.58 454.432 615.615 456.899 621.336 459.955C649.14 474.808 671.007 495.801 682.331 525.458C688.417 541.396 698.945 552.827 710.824 563.806C714.499 567.202 718.984 568.648 724.097 568.639C769.254 568.564 814.412 568.593 859.57 568.581C867.942 568.578 867.927 568.417 869.709 560.421C874.772 537.695 878.763 514.793 881.994 491.734C885.32 467.99 887.439 444.131 888.464 420.221C889.37 399.091 889.165 377.908 888.829 356.74C888.749 351.699 886.948 349.442 882.354 347.75C842.355 333.017 802.421 318.106 762.501 303.158C711.978 284.239 661.487 265.232 610.979 246.271C601.502 242.713 600.362 243.515 600.362 253.66C600.36 288.657 600.295 323.654 600.418 358.65C600.441 365.421 598.311 370.927 593.404 375.583C579.746 388.544 566.162 401.583 552.598 414.643C522.23 443.882 491.925 473.185 461.521 502.387C453.48 510.109 447.318 519.079 442.264 528.952C440.408 532.578 440.482 535.236 443.566 538.186C449.343 543.712 454.759 549.613 460.394 555.289C464.059 558.98 465.081 558.789 466.734 553.905C471.163 540.819 478.778 529.804 488.643 520.325C515.798 494.232 543.027 468.216 570.265 442.21C588.945 424.375 607.631 406.545 626.442 388.849C632.098 383.528 635.049 377.682 634.858 369.548C634.371 348.894 634.668 328.222 634.706 307.557C634.709 305.462 634.182 303.23 636.142 300.499C648.297 304.995 660.639 309.561 673.371 314.271C671.939 317.051 670.656 319.01 669.871 321.152C665.932 331.903 665.223 342.773 671.146 352.94C677.496 363.84 692.608 363.089 698.408 351.906C700.5 347.872 701.701 343.561 701.674 338.957C701.647 334.362 701.668 329.766 701.668 324.968C703.667 324.256 705.56 325.617 707.502 326.341C749.477 341.978 791.465 357.583 833.378 373.384C843.309 377.127 843.111 374.37 843.261 387.51C843.59 416.157 842.725 444.753 839.495 473.262C837.38 491.935 834.754 510.495 830.629 528.845C829.834 532.38 828.287 533.41 824.897 533.402C791.066 533.319 757.236 533.319 723.406 533.393C720.28 533.4 718.551 532.467 717.66 529.298C707.864 494.459 686.389 467.995 657.428 446.12ZM477.31 874.481C476.975 878.695 477.973 883.022 476.527 887.239C474.568 887.411 473.482 886.331 472.339 885.41C464.812 879.352 457.375 873.177 449.726 867.276C446.643 864.898 445.483 862.208 445.549 858.333C445.756 846.172 445.63 834.005 445.609 821.841C445.605 819.698 445.962 817.034 443.078 816.591C438.269 815.853 433.957 817.915 429.744 819.89C428.629 820.413 428.635 821.742 428.768 823.006C429.2 827.113 432.428 825.869 434.968 826.066C434.968 835.321 434.968 844.353 434.968 853.648C432.545 853.444 431.279 852.105 429.955 850.902C425.393 846.757 420.965 842.453 416.245 838.498C413.414 836.127 412.788 834.059 414.289 830.43C418.32 820.681 417.003 811.094 411.374 802.323C406.902 795.353 398.857 794.067 391.678 798.232C388.684 799.969 387.476 803.349 384.458 805.175C380.577 802.319 378.28 798.132 375.013 794.858C372.89 792.73 372.5 790.526 373.593 787.638C376.323 780.416 376.345 772.973 374.465 765.547C371.119 752.33 359.676 748.411 348.978 756.744C348.474 757.137 347.887 757.424 346.539 758.251C341.952 751.262 337.381 744.399 332.949 737.449C332.215 736.297 332.923 734.862 333.311 733.576C334.523 729.548 335.049 725.408 334.574 721.237C333.793 714.386 331.807 708.118 324.911 704.871C323.452 704.183 321.649 703.316 320.253 704.753C318.836 706.211 319.089 708.23 319.851 709.924C320.451 711.259 321.661 712.305 322.426 713.584C324.189 716.535 326.052 719.503 324.397 724.516C306.06 693.763 291.632 662.449 280.723 629.629C282.655 628.309 284.198 628.599 285.665 628.586C311.981 628.356 338.296 628.12 364.612 627.955C373.676 627.898 374.193 628.207 377.366 636.683C393.802 680.592 421.778 714.431 463.753 736.168C473.145 741.033 473.085 741.167 480.777 733.682C485.85 728.745 490.902 723.787 496.531 718.283C493.47 717.016 491.527 716.151 489.54 715.399C452.935 701.542 427.198 676.157 412.251 640.344C406.714 627.078 399.831 615.434 389 606.09C387.365 604.679 385.85 603.104 384.431 601.474C382.434 599.181 380.071 598.195 376.982 598.199C328.991 598.262 281 598.236 233.009 598.272C227.441 598.277 226.59 599.455 228.054 604.975C233.388 625.09 239.751 644.862 247.147 664.33C276.029 740.357 319.512 806.984 376.173 865.114C414.474 904.409 457.835 937.628 502.411 969.347C503.672 970.244 504.796 971.795 506.836 971.216C508.194 969.081 507.591 966.689 507.593 964.432C507.628 909.443 507.774 854.452 507.456 799.464C507.404 790.394 510.162 783.685 516.639 777.411C549.785 745.299 582.595 712.839 615.611 680.591C629.043 667.471 641.218 653.515 649.216 636.239C651.465 631.382 651.28 628.125 647.125 624.551C642.593 620.652 638.662 616.06 634.411 611.828C633.155 610.577 632.057 608.946 629.988 609.002C629.652 609.228 629.28 609.35 629.128 609.604C628.616 610.453 628.116 611.32 627.73 612.23C621.084 627.931 611.579 641.666 599.44 653.619C574.034 678.635 548.621 703.643 523.281 728.726C510.026 741.847 496.135 754.328 483.632 768.211C479.157 773.18 477.224 778.785 477.26 785.506C477.418 814.833 477.318 844.161 477.31 874.481ZM407.314 136.747C398.308 151.701 391.981 167.708 388.026 184.718C382.942 206.579 384.575 228.764 384.54 250.866C384.533 255.135 386.669 256.321 390.946 254.762C404.712 249.746 418.401 244.518 432.175 239.526C435.855 238.193 436.644 235.699 436.646 232.171C436.649 222.193 436.126 212.188 437.769 202.264C448.481 137.579 506.645 104.963 562.986 116.322C605.234 124.841 631.252 151.576 642.737 192.748C646.394 205.857 646.587 219.364 646.328 232.865C646.273 235.713 646.656 238.062 649.823 239.25C663.852 244.513 677.841 249.883 691.836 255.236C695.634 256.689 697.706 255.562 697.596 251.374C697.081 231.763 699.102 212.088 695.778 192.545C687.654 144.775 662.73 108.481 620.931 84.1926C587.481 64.7555 551.22 60.1283 513.359 66.2272C467.619 73.5952 432.432 96.9802 407.314 136.747ZM461.816 439.741C459.188 430.698 453.35 425.427 446.011 425.47C438.145 425.517 431.719 431.21 429.416 440.28C427.793 446.671 427.691 453.174 429.073 459.567C431.342 470.067 437.394 475.645 445.569 475.312C454.496 474.948 461.151 468.288 462.489 457.938C463.237 452.157 463.343 446.312 461.816 439.741ZM674.824 375.508C664.859 372.531 657.288 376.063 653.591 385.691C650.315 394.224 650.461 402.987 652.965 411.651C655.202 419.389 660.667 423.463 668.275 423.659C675.584 423.847 681.542 419.764 684.104 412.275C686.869 404.195 686.736 395.933 684.671 387.688C683.349 382.409 680.41 378.356 674.824 375.508ZM281.631 470.81C281.937 472.442 282.172 474.091 282.561 475.703C284.571 484.02 290.893 489.494 298.614 489.656C306.677 489.824 312.54 485.079 315.119 476.469C317.546 468.365 316.893 460.337 314.421 452.442C312.111 445.064 305.943 440.446 298.989 440.384C292.181 440.323 285.977 445.016 283.328 452.229C281.217 457.977 281.151 463.938 281.631 470.81ZM774.903 421.433C782.568 412.295 783.992 395.571 778.05 385.261C774.758 379.549 769.676 376.417 763.31 376.646C756.691 376.884 751.641 380.553 749.116 386.837C745.516 395.796 745.073 405.016 748.48 414.108C752.83 425.713 764.079 428.987 774.903 421.433ZM389.372 492.248C389.173 495.474 390.035 498.507 391.098 501.494C393.66 508.693 400.093 513.691 406.623 513.583C413.58 513.467 419.843 508.844 422.218 501.574C424.977 493.122 424.949 484.532 422.068 476.113C419.52 468.666 413.389 464.258 406.405 464.37C399.529 464.481 393.543 469.265 390.984 476.538C389.287 481.358 389.266 486.326 389.372 492.248ZM301.418 395.058C299.638 404.515 298.671 413.956 303.969 422.691C307.347 428.261 312.528 431.157 319.092 430.538C325.4 429.944 329.995 426.451 332.374 420.559C336.221 411.029 335.854 401.366 332.51 391.779C331.388 388.562 329.259 386.012 326.373 384.103C316.799 377.771 306.572 381.965 301.418 395.058ZM759.184 453.386C755.059 447.404 749.341 445.073 742.28 446.406C735.484 447.689 731.843 452.323 729.836 458.667C727.928 464.695 727.829 470.878 728.665 476.957C730.078 487.233 736.92 494.196 745.029 494.446C753.076 494.694 760.02 488.877 762.172 479.713C764.242 470.896 763.776 462.24 759.184 453.386ZM393.035 764.393C396.466 770.503 401.576 773.542 408.658 772.712C415.58 771.901 419.536 767.589 421.712 761.288C424.54 753.101 424.144 744.942 421.272 736.896C418.805 729.981 412.465 725.239 406.447 725.486C399.782 725.759 393.679 730.569 391.48 737.543C388.69 746.393 388.953 755.16 393.035 764.393ZM363.05 685.279C359.217 687.026 356.607 689.988 355.081 693.813C351.773 702.1 351.16 710.575 354.034 719.116C356.499 726.444 361.8 730.564 368.588 730.679C375.716 730.799 381.125 726.885 383.708 719.238C386.51 710.942 386.484 702.618 383.037 694.43C379.444 685.893 372.957 682.697 363.05 685.279ZM664.024 717.617C672.441 708.21 671.807 697.234 668.929 686.198C667.013 678.853 660.741 674.307 654.495 674.513C647.946 674.73 642.397 679.778 640.475 687.406C638.78 694.13 638.963 700.89 640.403 707.631C642.912 719.369 652.828 723.847 664.024 717.617ZM726.717 396.557C731.806 397.03 733.576 394.223 733.576 389.64C733.578 380.476 733.591 371.312 733.6 362.149C733.613 349.087 731.013 347.482 718.823 353.04C718.069 353.385 717.248 353.66 716.604 354.158C714.887 355.484 715.042 357.371 715.422 359.194C715.837 361.192 717.384 361.112 718.967 360.92C719.943 360.802 720.964 360.688 721.808 361.593C722.611 363.26 722.334 365.122 722.342 366.931C722.382 374.928 722.4 382.926 722.349 390.923C722.331 393.633 722.636 395.99 726.717 396.557ZM697.262 416.612C694.626 417.445 693.6 418.996 694.299 421.889C695.308 426.069 698.521 423.839 700.754 424.302C701.762 426.095 701.345 427.959 701.356 429.746C701.406 437.727 701.479 445.71 701.34 453.689C701.275 457.429 702.975 458.658 706.487 458.64C709.863 458.622 712.575 458.094 712.584 453.954C712.611 441.816 712.584 429.678 712.608 417.539C712.613 414.617 711.198 413.483 708.325 413.289C704.417 413.023 701.291 414.98 697.262 416.612ZM339.08 360.843C340.531 361.084 342.086 360.412 343.659 361.476C344.531 363.159 344.293 365.181 344.3 367.141C344.33 374.957 344.362 382.773 344.272 390.587C344.232 394.138 344.681 396.697 349.289 396.722C353.723 396.745 355.153 394.857 355.11 390.724C355.006 380.582 355.128 370.438 355.111 360.295C355.096 350.992 352.741 349.237 343.596 351.638C342.633 351.891 341.692 352.237 340.759 352.585C335.728 354.464 335.348 355.794 339.08 360.843ZM799.731 461.501C799.727 458.844 799.549 456.174 799.749 453.533C800.807 439.569 796.722 440.65 786.004 445.009C784.79 445.503 783.543 446.114 782.573 446.969C781.184 448.194 781.174 449.956 781.721 451.593C782.299 453.325 783.705 453.643 785.362 453.261C786.32 453.04 787.295 452.695 788.578 453.508C789.617 455.003 789.297 457.039 789.309 458.976C789.357 466.779 789.391 474.584 789.333 482.388C789.308 485.81 790.549 487.636 794.261 487.685C798.02 487.734 799.797 486.285 799.742 482.425C799.647 475.785 799.725 469.142 799.731 461.501ZM811.335 430.808C811.902 434.835 814.869 434.661 817.775 434.386C821.002 434.081 821.663 431.869 821.646 429.047C821.589 419.718 821.627 410.388 821.627 401.059C821.628 386.953 819.104 385.53 806.4 392.438C804.861 393.274 803.413 394.214 803.698 396.192C803.981 398.164 805.109 399.807 807.275 399.68C810.985 399.461 811.241 401.723 811.238 404.454C811.23 412.95 811.267 421.446 811.335 430.808ZM275.702 416.497C275.695 409.023 275.657 401.549 275.694 394.075C275.709 391.137 274.826 389.102 271.438 389.442C267.424 389.844 263.668 391.116 260.213 393.212C258.639 394.167 257.936 395.571 258.291 397.433C258.669 399.413 260 400.134 261.869 400.19C262.835 400.219 263.799 400.304 264.865 400.371C265.038 401.354 265.297 402.158 265.301 402.963C265.348 411.766 265.425 420.569 265.337 429.371C265.301 433.069 267.252 434.362 270.553 434.534C274.158 434.722 275.719 432.966 275.679 429.454C275.635 425.468 275.69 421.482 275.702 416.497ZM345.513 683.02C345.535 674.217 345.221 665.396 345.657 656.613C346.333 642.965 342.519 643.222 331.866 648.295C330.969 648.722 330.079 649.187 329.256 649.739C327.77 650.733 327.803 652.122 328.181 653.719C328.582 655.417 329.415 656.386 331.21 656.386C332.342 656.387 333.474 656.386 334.446 656.386C335.784 658.317 335.338 660.198 335.351 661.972C335.407 669.612 335.482 677.256 335.34 684.894C335.263 689.019 337.394 689.995 340.982 689.822C344.973 689.63 345.229 686.824 345.513 683.02ZM441.428 782.534C441.435 787.021 441.469 791.507 441.442 795.994C441.42 799.6 442.183 801.978 446.766 801.763C450.95 801.566 451.704 799.504 451.674 796.016C451.586 785.714 451.657 775.411 451.639 765.108C451.626 758.112 449.509 756.572 442.795 758.689C441.534 759.086 440.313 759.646 439.125 760.234C436.791 761.389 434.008 762.106 434.623 765.803C435.304 769.9 438.46 768.394 441.43 768.537C441.43 773.03 441.43 777.293 441.428 782.534ZM589.383 867.209C589.39 867.874 589.394 868.54 589.403 869.206C589.46 873.074 590.215 876.091 595.237 875.885C600.17 875.683 599.614 872.351 599.618 869.19C599.628 860.371 599.278 851.535 599.702 842.737C600.31 830.119 597.027 830.474 587.034 834.415C585.956 834.84 584.771 835.22 583.922 835.952C581.632 837.927 582.064 840.273 584.124 841.893C585.247 842.776 587.203 842.601 589.382 843.017C589.382 850.708 589.382 858.49 589.383 867.209ZM625.378 858.404C625.379 859.899 625.473 861.402 625.364 862.89C625.072 866.871 626.721 868.69 630.849 868.644C635.02 868.598 635.707 866.309 635.67 862.819C635.558 852.184 635.635 841.547 635.615 830.911C635.613 829.754 635.805 828.426 635.325 827.47C633.324 823.487 629.783 824.773 627.114 826.015C623.939 827.493 618.373 826.795 619.032 832.827C619.421 836.385 622.777 835.204 625.378 835.997C625.378 843.2 625.378 850.316 625.378 858.404ZM627.687 753.884C627.724 742.234 627.807 730.583 627.779 718.933C627.766 713.817 625.933 712.418 620.862 713.76C618.308 714.435 615.873 715.594 613.431 716.641C611.852 717.319 610.399 718.24 610.942 720.372C611.377 722.078 612.17 723.731 614.165 723.635C617.893 723.457 618.083 725.863 618.097 728.507C618.139 736.496 618.153 744.485 618.198 752.473C618.211 754.67 618.133 757.147 621.051 757.481C623.6 757.772 626.582 758.395 627.687 753.884ZM688.633 656.545C687.942 652.943 690.706 647.973 686.729 645.921C682.19 643.578 677.838 646.975 673.793 649.284C673.505 649.449 673.216 649.616 672.95 649.814C671.487 650.902 671.603 652.295 672.067 653.85C672.545 655.451 673.274 656.588 675.17 656.398C676.285 656.287 677.454 655.669 678.503 656.766C679.419 658.411 679.15 660.271 679.153 662.085C679.168 669.244 679.198 676.404 679.14 683.562C679.114 686.881 680.069 688.993 683.931 688.957C687.768 688.921 688.686 686.854 688.653 683.503C688.566 674.846 688.63 666.188 688.633 656.545Z" fill="black"></path>
<path d="M491.613 370.378C501.045 369.851 507.994 374.82 509.247 382.609C510.554 390.737 506.063 397.988 498.258 400.354C490.555 402.689 482.412 398.747 479.626 391.334C476.676 383.487 480.004 375.019 487.436 371.627C488.626 371.084 489.958 370.853 491.613 370.378Z" fill="black"></path>
<path d="M453.028 300.137C458.75 297.929 460.091 298.593 461.167 304.101C462.32 310.008 462.389 315.949 460.823 321.789C460.137 324.345 459.15 327.074 455.861 327.233C452.458 327.398 451.226 324.7 450.761 322.11C449.431 314.72 447.36 307.164 453.028 300.137Z" fill="black"></path>
<path d="M589.984 770.487C597.018 774.201 600.174 779.548 599.042 785.336C597.787 791.751 592.611 796.776 586.682 797.332C580.865 797.878 576.042 796.039 573.215 790.786C570.481 785.705 570.668 780.334 574.239 775.75C578.066 770.837 583.141 768.325 589.984 770.487Z" fill="black"></path>
<path d="M673.667 837.327C671.938 838.8 670.866 841.133 668.483 840.087C666.487 839.21 666.085 837.066 665.692 835.081C664.613 829.637 664.323 824.18 666.018 818.831C666.758 816.496 667.668 813.849 670.809 813.819C674.057 813.789 674.86 816.416 675.314 818.877C676.449 825.034 678.123 831.29 673.667 837.327Z" fill="black"></path>
<path d="M706.633 796.526C706.721 792.649 706.19 789.127 707.681 785.825C709.171 782.526 711.421 780.56 715.081 782.619C718.365 784.466 719.302 787.051 716.746 790.388C714.058 793.897 711.879 797.835 708.195 800.372C706.256 799.694 706.871 798.15 706.633 796.526Z" fill="black"></path>
<path d="M687.964 348.734C683.524 351.709 681.257 351.077 679.465 346.379C676.869 339.578 677.067 332.688 679.542 325.885C680.346 323.674 681.403 321.362 684.3 321.498C687.015 321.626 688.498 323.687 689.098 325.974C691.074 333.511 691.488 341.059 687.964 348.734Z" fill="black"></path>
<path d="M405.511 811.003C406.687 816.329 406.979 821.197 404.653 826.845C399.944 822.419 394.345 819.2 393.151 812.955C392.489 809.496 393.344 804.761 398.034 803.76C403.083 802.683 404.385 806.744 405.511 811.003Z" fill="black"></path>
<path d="M365.227 778.753C363.659 781.065 362.927 779.299 362.265 778.391C359.925 775.181 357.757 771.845 355.415 768.637C353.291 765.728 354.545 763.562 356.98 761.952C359.612 760.211 361.701 761.444 363.197 763.884C365.973 768.411 365.402 773.437 365.227 778.753Z" fill="black"></path>
<path d="M440.752 459.727C439.065 453.104 439.005 446.875 440.881 440.724C441.622 438.295 442.955 435.878 445.94 436.057C448.563 436.215 449.858 438.385 450.459 440.737C452.042 446.927 451.808 453.19 450.69 459.405C450.206 462.1 448.874 464.702 445.787 464.935C442.718 465.166 441.87 462.399 440.752 459.727Z" fill="black"></path>
<path d="M675.037 398.187C674.843 402.592 674.56 406.567 672.932 410.273C672.086 412.2 670.733 413.741 668.449 413.63C666.392 413.531 665.177 411.973 664.515 410.23C661.761 402.97 661.879 395.633 664.403 388.348C665.009 386.597 666.213 385.085 668.285 384.887C670.659 384.661 671.844 386.361 672.884 388.099C674.663 391.07 674.225 394.546 675.037 398.187Z" fill="black"></path>
<path d="M301.765 478.871C298.217 481.535 295.994 479.843 294.765 476.939C291.593 469.445 291.667 461.757 294.412 454.138C295.108 452.207 296.492 450.718 298.857 450.731C301.471 450.746 302.823 452.525 303.502 454.605C306.165 462.759 306.679 470.85 301.765 478.871Z" fill="black"></path>
<path d="M757.755 406.533C757.663 401.46 757.203 396.816 758.766 392.298C759.675 389.67 760.811 387.063 763.95 387.061C767.155 387.059 768.287 389.852 769.042 392.408C770.812 398.402 771.049 404.495 769.225 410.524C768.41 413.218 767.394 416.259 763.874 416.172C760.412 416.085 759.526 413.079 758.676 410.347C758.331 409.242 758.092 408.105 757.755 406.533Z" fill="black"></path>
<path d="M403.089 501.51C399.552 494.051 399.962 486.7 401.867 479.348C402.504 476.891 403.842 474.617 406.951 474.745C409.813 474.863 410.817 477.063 411.422 479.371C413.221 486.226 413.671 493.164 410.987 499.846C409.548 503.43 406.907 505.221 403.089 501.51Z" fill="black"></path>
<path d="M317.175 421.062C314.572 420.204 313.262 418.527 312.605 416.372C310.465 409.349 310.346 402.313 312.912 395.374C313.686 393.279 315.062 391.595 317.656 391.614C320.095 391.633 321.244 393.373 321.926 395.242C324.507 402.306 324.958 409.486 322.416 416.681C321.605 418.974 320.248 420.806 317.175 421.062Z" fill="black"></path>
<path d="M752.301 471.81C752.005 475.411 751.537 478.532 750.153 481.407C749.251 483.28 747.849 484.818 745.603 484.749C743.595 484.687 742.236 483.297 741.521 481.522C738.472 473.949 738.607 466.243 741.586 458.782C743.225 454.679 747.244 454.624 749.628 458.398C752.113 462.334 752.291 466.855 752.301 471.81Z" fill="black"></path>
<path d="M409.574 736.526C413.789 744.135 413.418 751.756 411.242 759.439C410.579 761.777 409.13 763.796 406.397 763.71C403.905 763.632 402.64 761.612 401.992 759.513C399.888 752.695 399.723 745.748 402.085 739.017C403.187 735.876 405.444 733.367 409.574 736.526Z" fill="black"></path>
<path d="M375.239 709.748C374.431 713.214 374.549 716.493 372.704 719.211C370.262 722.808 366.84 722.892 364.982 719.001C361.436 711.573 361.76 703.91 364.867 696.371C365.594 694.607 367.019 693.356 369.101 693.448C371.162 693.539 372.456 694.887 373.138 696.67C374.692 700.725 375.501 704.935 375.239 709.748Z" fill="black"></path>
<path d="M650.668 707.802C648.65 700.921 648.6 694.403 650.751 687.958C651.437 685.902 652.569 683.812 655.165 683.896C657.794 683.982 658.658 686.204 659.229 688.288C660.963 694.627 661.084 701.016 659.157 707.337C658.579 709.236 657.634 711.084 655.268 711.384C652.8 711.696 651.761 709.979 650.668 707.802Z" fill="black"></path>
</g>
<defs>
<clipPath id="clip0_24_19">
<rect width="1024" height="1024" fill="white" transform="translate(28 28)"></rect>
</clipPath>
<clipPath id="SvgjsClipPath1473"><rect width="1000" height="1000" x="0" y="0" rx="300" ry="300"></rect></clipPath></defs>
</svg></svg></g></g></svg>